{
	"accessors": [
		{
			"bufferView": 0,
			"byteOffset": 0,
			"componentType": 5126,
			"count": 786,
			"max": [
				0.008931337855756283,
				8.376429468626156e-05,
				-0.03609037026762962
			],
			"min": [
				-0.008930683135986328,
				-0.010906689800322056,
				-0.05389988049864769
			],
			"name": "node0_1_0_positions",
			"type": "VEC3"
		},
		{
			"bufferView": 1,
			"byteOffset": 0,
			"componentType": 5126,
			"count": 786,
			"max": [
				0.9999407529830933,
				0.9999603629112244,
				0.9999064803123474
			],
			"min": [
				-0.9999531507492065,
				-0.9999999403953552,
				-0.9999403953552246
			],
			"name": "node0_1_0_normals",
			"type": "VEC3"
		},
		{
			"bufferView": 2,
			"byteOffset": 0,
			"componentType": 5123,
			"count": 786,
			"max": [
				785
			],
			"min": [
				0
			],
			"name": "node0_1_0_indices",
			"type": "SCALAR"
		},
		{
			"bufferView": 0,
			"byteOffset": 9432,
			"componentType": 5126,
			"count": 1086,
			"max": [
				0.01050155982375145,
				-0.002482414012774825,
				-0.00013333199603948742
			],
			"min": [
				-0.010500900447368622,
				-0.02634548954665661,
				-0.05385756120085716
			],
			"name": "node1_1_0_positions",
			"type": "VEC3"
		},
		{
			"bufferView": 1,
			"byteOffset": 9432,
			"componentType": 5126,
			"count": 1086,
			"max": [
				0.9999829530715942,
				1,
				0.9999992251396179
			],
			"min": [
				-0.9999886155128479,
				-1,
				-1
			],
			"name": "node1_1_0_normals",
			"type": "VEC3"
		},
		{
			"bufferView": 2,
			"byteOffset": 1572,
			"componentType": 5123,
			"count": 1086,
			"max": [
				1085
			],
			"min": [
				0
			],
			"name": "node1_1_0_indices",
			"type": "SCALAR"
		}
	],
	"asset": {
		"generator": "obj2gltf",
		"version": "2.0"
	},
	"bufferViews": [
		{
			"buffer": 0,
			"byteLength": 22464,
			"byteOffset": 0,
			"byteStride": 12,
			"name": "bufferView_0",
			"target": 34962
		},
		{
			"buffer": 0,
			"byteLength": 22464,
			"byteOffset": 22464,
			"byteStride": 12,
			"name": "bufferView_1",
			"target": 34962
		},
		{
			"buffer": 0,
			"byteLength": 3744,
			"byteOffset": 44928,
			"name": "bufferView_2",
			"target": 34963
		}
	],
	"buffers": [
		{
			"byteLength": 48672,
			"name": "finger",
			"uri": "finger.bin"
		}
	],
	"materials": [
		{
			"alphaMode": "OPAQUE",
			"doubleSided": false,
			"emissiveFactor": [
				0,
				0,
				0
			],
			"name": "Part__Feature_007",
			"pbrMetallicRoughness": {
				"baseColorFactor": [
					0.250980406999588,
					0.250980406999588,
					0.250980406999588,
					1
				],
				"metallicFactor": 0,
				"roughnessFactor": 1
			}
		},
		{
			"alphaMode": "OPAQUE",
			"doubleSided": false,
			"emissiveFactor": [
				0,
				0,
				0
			],
			"name": "Part__Feature001_006",
			"pbrMetallicRoughness": {
				"baseColorFactor": [
					0.9019607901573181,
					0.9215685725212097,
					0.9294118285179138,
					1
				],
				"metallicFactor": 0,
				"roughnessFactor": 1
			}
		}
	],
	"meshes": [
		{
			"name": "node0_1",
			"primitives": [
				{
					"attributes": {
						"NORMAL": 1,
						"POSITION": 0
					},
					"indices": 2,
					"material": 0,
					"mode": 4
				}
			]
		},
		{
			"name": "node1_1",
			"primitives": [
				{
					"attributes": {
						"NORMAL": 4,
						"POSITION": 3
					},
					"indices": 5,
					"material": 1,
					"mode": 4
				}
			]
		}
	],
	"nodes": [
		{
			"mesh": 0,
			"name": "node0"
		},
		{
			"mesh": 1,
			"name": "node1"
		}
	],
	"scene": 0,
	"scenes": [
		{
			"nodes": [
				0,
				1
			]
		}
	]
}
