{
	"accessors": [
		{
			"bufferView": 0,
			"componentType": 5126,
			"count": 23036,
			"max": [
				0.03137039393186569,
				0.026753626763820648,
				0.10061398148536682
			],
			"min": [
				-0.03137039393186569,
				-0.066014863550663,
				-0.1039746105670929
			],
			"type": "VEC3"
		},
		{
			"bufferView": 1,
			"componentType": 5126,
			"count": 23036,
			"type": "VEC3"
		},
		{
			"bufferView": 2,
			"componentType": 5126,
			"count": 23036,
			"type": "VEC2"
		},
		{
			"bufferView": 3,
			"componentType": 5123,
			"count": 87792,
			"type": "SCALAR"
		}
	],
	"asset": {
		"generator": "Khronos glTF Blender I/O v1.8.19",
		"version": "2.0"
	},
	"bufferViews": [
		{
			"buffer": 0,
			"byteLength": 276432,
			"byteOffset": 0
		},
		{
			"buffer": 0,
			"byteLength": 276432,
			"byteOffset": 276432
		},
		{
			"buffer": 0,
			"byteLength": 184288,
			"byteOffset": 552864
		},
		{
			"buffer": 0,
			"byteLength": 175584,
			"byteOffset": 737152
		}
	],
	"buffers": [
		{
			"byteLength": 912736,
			"uri": "hand.bin"
		}
	],
	"images": [
		{
			"mimeType": "image/png",
			"name": "hand_normal",
			"uri": "textures/hand_normal.png"
		},
		{
			"mimeType": "image/png",
			"name": "hand_occlusion_roughness_metallic",
			"uri": "textures/hand_occlusion_roughness_metallic.png"
		},
		{
			"mimeType": "image/png",
			"name": "hand_color",
			"uri": "textures/hand_color.png"
		}
	],
	"materials": [
		{
			"doubleSided": true,
			"name": "hand_material",
			"normalTexture": {
				"index": 0
			},
			"occlusionTexture": {
				"index": 1
			},
			"pbrMetallicRoughness": {
				"baseColorTexture": {
					"index": 2
				},
				"metallicRoughnessTexture": {
					"index": 1
				}
			}
		}
	],
	"meshes": [
		{
			"name": "hand",
			"primitives": [
				{
					"attributes": {
						"NORMAL": 1,
						"POSITION": 0,
						"TEXCOORD_0": 2
					},
					"indices": 3,
					"material": 0
				}
			]
		}
	],
	"nodes": [
		{
			"mesh": 0,
			"name": "hand",
			"rotation": [
				1,
				0,
				0,
				-4.371138828673793e-08
			]
		}
	],
	"samplers": [
		{
			"magFilter": 9729,
			"minFilter": 9987
		}
	],
	"scene": 0,
	"scenes": [
		{
			"name": "Scene",
			"nodes": [
				0
			]
		}
	],
	"textures": [
		{
			"sampler": 0,
			"source": 0
		},
		{
			"sampler": 0,
			"source": 1
		},
		{
			"sampler": 0,
			"source": 2
		}
	]
}
