{
	"asset":{
		"generator":"Khronos glTF Blender I/O v5.0.21",
		"version":"2.0"
	},
	"extensionsUsed":[
		"KHR_materials_specular"
	],
	"scene":0,
	"scenes":[
		{
			"name":"Scene",
			"nodes":[
				0
			]
		}
	],
	"nodes":[
		{
			"mesh":0,
			"name":"cobot_pump",
			"rotation":[
				0.7071068286895752,
				0,
				0,
				0.7071068286895752
			]
		}
	],
	"materials":[
		{
			"doubleSided":true,
			"extensions":{
				"KHR_materials_specular":{
					"specularTexture":{
						"index":0
					}
				}
			},
			"name":"Plastic white material",
			"normalTexture":{
				"index":1
			},
			"pbrMetallicRoughness":{
				"baseColorTexture":{
					"index":2
				},
				"metallicRoughnessTexture":{
					"index":3
				}
			}
		},
		{
			"doubleSided":true,
			"name":"Black Rubber Worn",
			"normalTexture":{
				"index":4
			},
			"pbrMetallicRoughness":{
				"baseColorTexture":{
					"index":5
				},
				"metallicFactor":0,
				"metallicRoughnessTexture":{
					"index":6
				}
			}
		},
		{
			"doubleSided":true,
			"name":"Scratched rusty metal procedural",
			"pbrMetallicRoughness":{
				"roughnessFactor":0.15000000596046448
			}
		},
		{
			"doubleSided":true,
			"name":"Black Geometric Pattern",
			"normalTexture":{
				"index":7
			},
			"pbrMetallicRoughness":{
				"baseColorTexture":{
					"index":8
				},
				"metallicFactor":0,
				"metallicRoughnessTexture":{
					"index":9
				}
			}
		},
		{
			"doubleSided":true,
			"name":"Nikon",
			"pbrMetallicRoughness":{
				"baseColorFactor":[
					0.011087627150118351,
					0.011087627150118351,
					0.011087627150118351,
					1
				],
				"metallicFactor":0
			}
		},
		{
			"doubleSided":true,
			"extensions":{
				"KHR_materials_specular":{
					"specularColorFactor":[
						0.10601627826690674,
						0.10601627826690674,
						0.10601627826690674
					]
				}
			},
			"name":"Old rubber",
			"pbrMetallicRoughness":{
				"baseColorFactor":[
					0.01971428468823433,
					0.01971428468823433,
					0.01971428468823433,
					1
				],
				"metallicFactor":0,
				"metallicRoughnessTexture":{
					"index":10
				}
			}
		}
	],
	"meshes":[
		{
			"name":"cobot_pump",
			"primitives":[
				{
					"attributes":{
						"POSITION":0,
						"NORMAL":1,
						"TEXCOORD_0":2
					},
					"indices":3,
					"material":0
				},
				{
					"attributes":{
						"POSITION":4,
						"NORMAL":5,
						"TEXCOORD_0":6
					},
					"indices":7,
					"material":1
				},
				{
					"attributes":{
						"POSITION":8,
						"NORMAL":9,
						"TEXCOORD_0":10
					},
					"indices":11,
					"material":2
				},
				{
					"attributes":{
						"POSITION":12,
						"NORMAL":13,
						"TEXCOORD_0":14
					},
					"indices":15,
					"material":3
				},
				{
					"attributes":{
						"POSITION":16,
						"NORMAL":17,
						"TEXCOORD_0":18
					},
					"indices":19,
					"material":4
				},
				{
					"attributes":{
						"POSITION":20,
						"NORMAL":21,
						"TEXCOORD_0":22
					},
					"indices":23,
					"material":5
				}
			]
		}
	],
	"textures":[
		{
			"sampler":0,
			"source":0
		},
		{
			"sampler":0,
			"source":1
		},
		{
			"sampler":0,
			"source":2
		},
		{
			"sampler":0,
			"source":3
		},
		{
			"sampler":0,
			"source":4
		},
		{
			"sampler":0,
			"source":5
		},
		{
			"sampler":0,
			"source":6
		},
		{
			"sampler":0,
			"source":7
		},
		{
			"sampler":0,
			"source":8
		},
		{
			"sampler":0,
			"source":9
		},
		{
			"sampler":0,
			"source":10
		}
	],
	"images":[
		{
			"mimeType":"image/jpeg",
			"name":"plastic_specular",
			"uri":"plastic_specular.jpg"
		},
		{
			"mimeType":"image/jpeg",
			"name":"plastic_normal_opengl",
			"uri":"plastic_normal_opengl.jpg"
		},
		{
			"mimeType":"image/jpeg",
			"name":"plastic07_diffuse",
			"uri":"plastic07_diffuse.jpg"
		},
		{
			"mimeType":"image/png",
			"name":"plastic_metallic-plastic_glossiness",
			"uri":"plastic_metallic-plastic_glossiness.png"
		},
		{
			"mimeType":"image/jpeg",
			"name":"Black_Rubber_normal",
			"uri":"Black_Rubber_normal.jpg"
		},
		{
			"mimeType":"image/jpeg",
			"name":"Black_Rubber_basecolor",
			"uri":"Black_Rubber_basecolor.jpg"
		},
		{
			"mimeType":"image/png",
			"name":"Black_Rubber_roughness",
			"uri":"Black_Rubber_roughness.png"
		},
		{
			"mimeType":"image/jpeg",
			"name":"Charcoal_black_Geometric_stripy__Normal",
			"uri":"Charcoal_black_Geometric_stripy__Normal.jpg"
		},
		{
			"mimeType":"image/jpeg",
			"name":"Charcoal_black_Geometric_stripy__Base_Color",
			"uri":"Charcoal_black_Geometric_stripy__Base_Color.jpg"
		},
		{
			"mimeType":"image/png",
			"name":"Charcoal_black_Geometric_stripy__Roughness",
			"uri":"Charcoal_black_Geometric_stripy__Roughness.png"
		},
		{
			"mimeType":"image/png",
			"name":"Used Metal_roughness",
			"uri":"Used%20Metal_roughness.png"
		}
	],
	"accessors":[
		{
			"bufferView":0,
			"componentType":5126,
			"count":191880,
			"max":[
				0.07399900257587433,
				0.10901299864053726,
				0.07400300353765488
			],
			"min":[
				-0.062383998185396194,
				-0.02935599908232689,
				-0.06238500028848648
			],
			"type":"VEC3"
		},
		{
			"bufferView":1,
			"componentType":5126,
			"count":191880,
			"type":"VEC3"
		},
		{
			"bufferView":2,
			"componentType":5126,
			"count":191880,
			"type":"VEC2"
		},
		{
			"bufferView":3,
			"componentType":5125,
			"count":202800,
			"type":"SCALAR"
		},
		{
			"bufferView":4,
			"componentType":5126,
			"count":5054,
			"max":[
				0.030264120548963547,
				0.10901299864053726,
				0.03026411682367325
			],
			"min":[
				-0.030264098197221756,
				0.0670040026307106,
				-0.030264103785157204
			],
			"type":"VEC3"
		},
		{
			"bufferView":5,
			"componentType":5126,
			"count":5054,
			"type":"VEC3"
		},
		{
			"bufferView":6,
			"componentType":5126,
			"count":5054,
			"type":"VEC2"
		},
		{
			"bufferView":7,
			"componentType":5123,
			"count":5292,
			"type":"SCALAR"
		},
		{
			"bufferView":8,
			"componentType":5126,
			"count":692,
			"max":[
				0.01687844842672348,
				0.09156499803066254,
				0.016876276582479477
			],
			"min":[
				-0.016876256093382835,
				0.07959999889135361,
				-0.016878429800271988
			],
			"type":"VEC3"
		},
		{
			"bufferView":9,
			"componentType":5126,
			"count":692,
			"type":"VEC3"
		},
		{
			"bufferView":10,
			"componentType":5126,
			"count":692,
			"type":"VEC2"
		},
		{
			"bufferView":11,
			"componentType":5123,
			"count":780,
			"type":"SCALAR"
		},
		{
			"bufferView":12,
			"componentType":5126,
			"count":41947,
			"max":[
				-0.01637200079858303,
				0.008999999612569809,
				0.055987000465393066
			],
			"min":[
				-0.055987000465393066,
				-0.02935599908232689,
				-0.010412000119686127
			],
			"type":"VEC3"
		},
		{
			"bufferView":13,
			"componentType":5126,
			"count":41947,
			"type":"VEC3"
		},
		{
			"bufferView":14,
			"componentType":5126,
			"count":41947,
			"type":"VEC2"
		},
		{
			"bufferView":15,
			"componentType":5123,
			"count":42372,
			"type":"SCALAR"
		},
		{
			"bufferView":16,
			"componentType":5126,
			"count":35001,
			"max":[
				-0.01054100040346384,
				0.015073000453412533,
				0.06658600270748138
			],
			"min":[
				-0.022038999944925308,
				0.002085000043734908,
				0.05508999899029732
			],
			"type":"VEC3"
		},
		{
			"bufferView":17,
			"componentType":5126,
			"count":35001,
			"type":"VEC3"
		},
		{
			"bufferView":18,
			"componentType":5126,
			"count":35001,
			"type":"VEC2"
		},
		{
			"bufferView":19,
			"componentType":5123,
			"count":35394,
			"type":"SCALAR"
		},
		{
			"bufferView":20,
			"componentType":5126,
			"count":11002,
			"max":[
				-0.014266000129282475,
				0.00608500000089407,
				0.07084699720144272
			],
			"min":[
				-0.059014998376369476,
				-0.02961999922990799,
				0.028929000720381737
			],
			"type":"VEC3"
		},
		{
			"bufferView":21,
			"componentType":5126,
			"count":11002,
			"type":"VEC3"
		},
		{
			"bufferView":22,
			"componentType":5126,
			"count":11002,
			"type":"VEC2"
		},
		{
			"bufferView":23,
			"componentType":5123,
			"count":11061,
			"type":"SCALAR"
		}
	],
	"bufferViews":[
		{
			"buffer":0,
			"byteLength":2302560,
			"byteOffset":0,
			"target":34962
		},
		{
			"buffer":0,
			"byteLength":2302560,
			"byteOffset":2302560,
			"target":34962
		},
		{
			"buffer":0,
			"byteLength":1535040,
			"byteOffset":4605120,
			"target":34962
		},
		{
			"buffer":0,
			"byteLength":811200,
			"byteOffset":6140160,
			"target":34963
		},
		{
			"buffer":0,
			"byteLength":60648,
			"byteOffset":6951360,
			"target":34962
		},
		{
			"buffer":0,
			"byteLength":60648,
			"byteOffset":7012008,
			"target":34962
		},
		{
			"buffer":0,
			"byteLength":40432,
			"byteOffset":7072656,
			"target":34962
		},
		{
			"buffer":0,
			"byteLength":10584,
			"byteOffset":7113088,
			"target":34963
		},
		{
			"buffer":0,
			"byteLength":8304,
			"byteOffset":7123672,
			"target":34962
		},
		{
			"buffer":0,
			"byteLength":8304,
			"byteOffset":7131976,
			"target":34962
		},
		{
			"buffer":0,
			"byteLength":5536,
			"byteOffset":7140280,
			"target":34962
		},
		{
			"buffer":0,
			"byteLength":1560,
			"byteOffset":7145816,
			"target":34963
		},
		{
			"buffer":0,
			"byteLength":503364,
			"byteOffset":7147376,
			"target":34962
		},
		{
			"buffer":0,
			"byteLength":503364,
			"byteOffset":7650740,
			"target":34962
		},
		{
			"buffer":0,
			"byteLength":335576,
			"byteOffset":8154104,
			"target":34962
		},
		{
			"buffer":0,
			"byteLength":84744,
			"byteOffset":8489680,
			"target":34963
		},
		{
			"buffer":0,
			"byteLength":420012,
			"byteOffset":8574424,
			"target":34962
		},
		{
			"buffer":0,
			"byteLength":420012,
			"byteOffset":8994436,
			"target":34962
		},
		{
			"buffer":0,
			"byteLength":280008,
			"byteOffset":9414448,
			"target":34962
		},
		{
			"buffer":0,
			"byteLength":70788,
			"byteOffset":9694456,
			"target":34963
		},
		{
			"buffer":0,
			"byteLength":132024,
			"byteOffset":9765244,
			"target":34962
		},
		{
			"buffer":0,
			"byteLength":132024,
			"byteOffset":9897268,
			"target":34962
		},
		{
			"buffer":0,
			"byteLength":88016,
			"byteOffset":10029292,
			"target":34962
		},
		{
			"buffer":0,
			"byteLength":22122,
			"byteOffset":10117308,
			"target":34963
		}
	],
	"samplers":[
		{
			"magFilter":9729,
			"minFilter":9987
		}
	],
	"buffers":[
		{
			"byteLength":10139432,
			"uri":"cobot_pump.bin"
		}
	]
}
